<svg width="148" height="31" viewBox="0 0 148 31" fill="none" xmlns="http://www.w3.org/2000/svg">
<path d="M54.6477 21.4507C47.8255 21.4507 27.291 21.454 16.0566 21.4572C16.8265 20.0795 17.5802 18.5432 18.308 16.8388C18.3759 16.6803 18.5021 16.3731 18.57 16.2146C18.7382 15.8039 18.68 15.3252 18.2304 15.0245C17.729 14.6913 17.2729 14.8821 16.9559 15.2476C15.3417 17.1073 11.916 18.3427 9.8393 17.4889C8.44833 16.9132 7.92106 15.2961 8.56479 13.1939C8.61007 13.2133 8.65212 13.2327 8.70065 13.2521C14.1383 15.4966 22.6135 13.0969 25.0623 7.16867C26.0392 4.80126 25.4051 2.28509 23.0567 1.31484C18.0589 -0.748559 10.6998 5.14732 7.71403 10.4772C6.42982 9.22883 6.57862 7.58911 7.15441 6.09816C7.36144 5.56129 7.26116 5.00502 6.77594 4.76892C6.21632 4.49402 5.65347 4.77862 5.45938 5.25728C4.52776 7.54383 4.2528 10.3187 6.88269 12.256C5.70846 15.4158 6.52039 18.1713 9.17616 19.2677C11.4664 20.212 14.0542 19.3518 15.3417 18.7437C14.8856 19.6946 14.3971 20.6034 13.8893 21.4637C11.6637 21.4637 9.99133 21.4637 9.14381 21.4669C4.28515 21.4701 1.45147 22.7024 0.338697 25.3964C-0.634977 27.7509 0.623359 29.7884 2.42514 30.5323C6.05135 32.0297 10.6771 30.0083 14.9341 23.3589C28.5752 23.3654 53.8358 23.3718 54.5571 23.3718C55.3626 23.3718 55.864 23.0516 55.864 22.4242C55.8575 21.8809 55.5082 21.4507 54.6477 21.4507ZM22.1898 2.9869C23.5193 3.53347 23.9042 5.04059 23.309 6.48626C21.4005 11.1046 14.0122 13.43 9.38319 11.5219C9.35084 11.5089 9.32173 11.496 9.28938 11.4798C11.8384 6.81291 18.8062 1.59298 22.1898 2.9869ZM3.10445 28.789C1.94639 28.3104 1.65202 27.0943 2.05314 26.1241C2.59982 24.8013 4.10724 23.346 9.34437 23.3492C10.2728 23.3492 11.3952 23.3492 12.6665 23.3524C9.69373 27.6086 6.17427 30.0536 3.10445 28.789Z" fill="#DCD7CF"/>
<path d="M112.263 21.4507C103.432 21.4507 83.147 21.4572 78.2884 21.4572C77.7579 21.4572 77.25 21.7903 77.25 22.4664C77.25 23.0907 77.7352 23.3495 78.2431 23.3495C88.5944 23.3495 111.325 23.3625 112.163 23.3625C112.969 23.3625 113.47 23.0422 113.47 22.4147C113.47 21.8809 113.121 21.4507 112.263 21.4507Z" fill="#DCD7CF"/>
<path d="M24.8792 18.8531C26.2443 19.4159 27.4217 18.6397 28.2466 17.7438C28.5992 18.1901 29.0585 18.5071 29.5308 18.7044C32.4648 19.914 35.2629 17.5854 36.2818 15.1145C36.298 15.0789 36.3077 15.0433 36.3239 15.0045C36.8964 14.9786 37.5014 14.7813 38.0901 14.4741C37.469 15.978 36.89 17.3784 36.7832 17.6371C36.5471 18.2063 36.6732 18.74 37.2555 18.9793C37.4755 19.0698 37.6728 19.0763 37.8475 19.031C37.8572 19.0278 37.8701 19.0246 37.8798 19.0213C37.9219 19.0084 37.9607 18.9954 37.9995 18.976C38.2162 18.8726 38.378 18.6914 38.4589 18.4974C40.4644 14.5064 43.7607 11.421 44.3882 11.683C44.5435 11.7477 44.5015 12.0679 44.4076 12.2975C44.33 12.4851 44.2977 12.5562 44.1198 12.9928C43.8674 13.6041 44.013 14.1216 44.5791 14.3544C45.1452 14.5873 45.5689 14.3868 46.0509 13.2192C46.8693 11.2335 46.0606 10.2729 45.2713 9.94626C44.0615 9.4482 42.7094 10.0983 41.1793 11.8868C41.3508 11.4728 41.4672 11.1882 41.4996 11.1073C41.5254 11.0426 41.5481 10.9747 41.5643 10.9068C41.574 10.8745 41.5772 10.8421 41.5804 10.8098C41.5869 10.7774 41.5901 10.7419 41.5934 10.7095C41.5966 10.6772 41.5966 10.6448 41.5966 10.6125C41.5966 10.5769 41.5934 10.5446 41.5901 10.509C41.5869 10.4864 41.5837 10.4637 41.5772 10.4411C41.5675 10.399 41.5578 10.357 41.5416 10.315C41.5384 10.3053 41.5319 10.2955 41.5287 10.2826C41.5093 10.2373 41.4866 10.1921 41.4575 10.1468C41.4543 10.1435 41.451 10.1371 41.4478 10.1338C41.4187 10.0918 41.3863 10.0498 41.3443 10.0142C41.3346 10.0045 41.3249 9.99801 41.3152 9.98831C41.2796 9.9592 41.2472 9.93009 41.2052 9.90098C41.1534 9.86541 41.0952 9.8363 41.0338 9.81042C41.0305 9.81042 41.0305 9.80719 41.0273 9.80719H41.024C40.9529 9.77808 40.885 9.75868 40.817 9.74574C40.8106 9.74574 40.8041 9.74251 40.7944 9.74251C40.6682 9.71987 40.5453 9.7231 40.4256 9.75544C40.4224 9.75544 40.4224 9.75544 40.4191 9.75868C40.3739 9.77161 40.3286 9.79102 40.2833 9.81366C40.2639 9.82336 40.2445 9.83306 40.2251 9.846C40.2056 9.85894 40.183 9.87187 40.1636 9.88804C40.1215 9.91715 40.0827 9.95273 40.0439 9.98831C40.0407 9.99154 40.0407 9.99154 40.0374 9.99477C39.9921 10.0401 39.9533 10.0886 39.9177 10.1403C39.9048 10.1597 39.8886 10.1791 39.8757 10.1985C39.8692 10.2082 39.866 10.2147 39.8595 10.2244C39.8272 10.2761 39.7916 10.3247 39.7592 10.3861C39.3808 11.0944 38.0027 12.9831 36.7218 13.3842C36.8609 11.7089 36.0231 10.5316 34.7615 10.0109C32.6395 9.13449 29.4014 10.2438 28.0428 13.5297C27.5932 14.6196 27.4897 15.5349 27.6126 16.2885C26.8686 17.1649 26.1084 17.3266 25.6943 17.1552C25.235 16.9644 25.0991 16.4534 25.4647 15.5705C25.7267 14.9398 30.4333 3.53615 30.938 2.30717C31.1967 1.67974 31.077 1.16227 30.4721 0.913241C29.9158 0.683615 29.4564 0.95852 29.2203 1.5342C28.6962 2.80199 24.2063 13.6817 23.7146 14.8751C22.9254 16.7995 23.4623 18.2678 24.8792 18.8531ZM29.7702 14.28C30.7342 11.945 32.9662 11.3919 33.914 11.6959C33.5355 12.4851 33.6681 13.617 34.548 14.3706C33.6422 16.337 31.7272 17.5789 30.3169 16.9935C29.6505 16.7218 29.1782 15.716 29.7702 14.28Z" fill="#DCD7CF"/>
<path d="M50.2902 8.33386C50.8434 8.5506 51.3739 8.28211 51.6844 7.53164C52.0014 6.76499 51.8753 6.27977 51.3124 6.02745C50.7593 5.77837 50.2029 6.02098 49.8794 6.80381C49.5333 7.63515 49.763 8.12684 50.2902 8.33386Z" fill="#DCD7CF"/>
<path d="M79.4222 13.5447C78.4938 15.7892 79.2151 17.7232 81.1301 18.5124C84.2032 19.7802 87.1436 18.1598 89.0069 16.4037C89.2883 17.4904 90.0452 18.3022 90.9575 18.6773C92.8886 19.4729 94.8166 18.3701 95.6156 17.4386C95.7514 18.0305 95.9843 18.5932 96.7219 18.8099C97.4853 19.0331 98.3296 18.5479 99.0153 17.8817C98.9377 18.3442 99.1027 18.7743 99.575 18.9684C99.6397 18.9943 99.7011 19.0104 99.7626 19.0234C99.7723 19.0266 99.782 19.0266 99.7917 19.0298C99.8435 19.0395 99.892 19.0395 99.9405 19.0395C99.9664 19.0395 99.9955 19.0395 100.021 19.0363C100.054 19.0331 100.086 19.0266 100.118 19.0201C100.148 19.0137 100.18 19.0072 100.209 18.9975C100.241 18.9878 100.27 18.9749 100.3 18.9619C100.316 18.9522 100.335 18.9458 100.351 18.936C100.4 18.9102 100.442 18.8843 100.484 18.852C100.639 18.7388 100.756 18.5868 100.817 18.438C102.913 14.0622 106.533 11.1805 107.474 11.5686C107.85 11.7239 107.753 12.7362 107.448 13.4768C107.248 13.9587 106.148 16.6301 105.757 17.5745C105.511 18.1696 105.715 18.6676 106.187 18.8649C106.656 19.0589 107.209 18.9749 107.507 18.2472C107.668 17.8558 108.477 15.8992 109.14 14.2886C109.803 12.6779 110.052 10.579 108.144 9.78984C106.905 9.27884 105.268 9.94508 103.525 11.8662C103.686 11.4781 103.796 11.2096 103.825 11.132C104.023 10.6534 103.968 10.0292 103.356 9.77367C102.758 9.52787 102.266 9.9095 102.069 10.3946C102.014 10.5272 101.788 11.077 101.48 11.8177C101.429 11.9373 101.37 12.0667 101.312 12.2155C99.9502 15.5175 98.0093 17.2122 97.5564 17.0247C97.4529 16.9826 97.3979 16.8597 97.4012 16.6786C97.8929 15.5337 98.8213 13.4056 99.2288 12.4192C99.4876 11.7885 99.3712 11.2711 98.763 11.0221C98.3263 10.8409 97.9511 10.9768 97.6955 11.3164C97.3268 10.7374 96.7769 10.22 96.0361 9.91273C94.3055 9.19798 90.9186 9.66694 89.2786 13.6385C89.2107 13.8002 89.1557 13.9587 89.1072 14.1171C86.542 16.8888 83.7342 17.5615 81.9453 16.8241C81.0784 16.4651 80.839 15.6922 81.004 14.8481C83.0451 15.9833 86.5969 15.2232 87.5059 13.024C88.0461 11.7109 87.5415 10.524 86.1473 9.94831C83.9412 9.03628 80.7873 10.2394 79.4222 13.5447ZM91.0869 14.1721C92.0314 11.8791 94.3314 11.2387 95.2986 11.6398C96.0361 11.9438 96.3337 12.6812 96.3757 13.2763C96.3887 13.4444 96.4307 13.5932 96.489 13.7226C96.4404 13.784 96.3952 13.8455 96.3531 13.9166C95.0365 16.1417 93.0019 17.4871 91.6109 16.9147C90.8895 16.6139 90.5531 15.4658 91.0869 14.1721ZM85.4163 11.6689C85.7624 11.8112 85.8562 12.0861 85.7462 12.3545C85.4292 13.1178 83.2457 14.0104 81.6671 13.3377C82.7961 11.7045 84.6431 11.3487 85.4163 11.6689Z" fill="#DCD7CF"/>
<path d="M115.811 11.7429C115.869 11.6006 116.021 11.4841 116.205 11.5068C116.616 11.5585 117.066 11.4453 117.276 10.9343C117.49 10.4201 117.237 9.88968 116.788 9.70534C115.924 9.34958 114.53 9.86058 114.044 11.0346C113.181 13.1238 116.027 14.825 115.435 16.261C115.115 17.0404 114.177 17.3929 113.385 17.0663C112.686 16.7785 112.388 15.8826 112.599 15.3684C112.793 14.8994 112.602 14.3431 112.078 14.1264C111.563 13.913 111.03 14.1717 110.836 14.6471C110.198 16.1931 111.023 18.1594 112.754 18.8742C114.452 19.576 116.529 18.609 117.169 17.0534C118.24 14.4628 115.49 12.5158 115.811 11.7429Z" fill="#DCD7CF"/>
<path d="M59.1708 18.5225C59.4134 17.9307 59.0834 17.5588 58.8149 17.3291C58.5594 17.1092 58.6111 16.6532 58.8343 16.1098C58.9443 15.8446 59.0414 15.6053 59.1416 15.366C59.601 14.3019 60.125 13.0891 60.4032 12.4132C60.662 11.7825 60.5455 11.2651 59.9374 11.016C59.5136 10.8414 59.1513 10.9578 58.8958 11.2715C58.527 10.7573 58.003 10.3078 57.3237 10.0264C55.5931 9.31163 52.2062 9.78059 50.5662 13.7521C50.1489 14.7612 50.1036 15.6894 50.3042 16.4818C49.6249 17.1707 48.9585 17.2936 48.58 17.1383C48.0657 16.9249 48.0139 16.3653 48.3503 15.5536C48.6124 14.9229 49.6249 12.4682 50.1327 11.2392C50.3915 10.6118 50.2718 10.0943 49.6669 9.84527C49.1105 9.61565 48.6512 9.89055 48.415 10.4662C47.891 11.734 47.0952 13.6648 46.6036 14.8582C45.811 16.7826 46.348 18.2509 47.7649 18.833C49.0588 19.3667 50.1845 18.6972 50.9996 17.8628C51.3458 18.2767 51.776 18.5969 52.2548 18.7942C54.1859 19.5898 56.0751 18.529 56.874 17.5976C57.0034 18.1959 57.2299 18.7036 57.9383 18.9947C58.4365 19.2049 58.9702 19.0077 59.1708 18.5225ZM57.6569 14.0367C56.3403 16.236 54.2894 17.604 52.9114 17.0348C52.1868 16.7373 51.8504 15.5859 52.3841 14.2922C53.3287 11.9992 55.6286 11.3589 56.5959 11.7599C57.3334 12.0639 57.6019 12.7884 57.6472 13.3802C57.6601 13.5387 57.6957 13.6875 57.7474 13.8265C57.7183 13.8977 57.686 13.9688 57.6569 14.0367Z" fill="#DCD7CF"/>
<path d="M81.7726 3.9845L81.847 3.78722C82.1608 2.97544 82.1187 2.18631 81.7338 1.62356C81.4135 1.15784 80.9024 0.902344 80.2911 0.902344H72.0811C71.5539 0.902344 71.1269 1.32925 71.1269 1.85642C71.1269 2.38359 71.5539 2.8105 72.0811 2.8105H80.139C80.1293 2.88165 80.1099 2.97868 80.0646 3.09834L79.9902 3.29563C79.45 4.69925 78.0105 8.43148 76.7651 11.4716C71.7674 23.6806 67.7853 28.8908 63.4539 28.8908C61.4969 28.8908 60.4391 27.1993 60.4391 25.6049C60.4391 20.22 66.6434 14.751 71.1042 14.751C71.68 14.751 72.1167 14.8384 72.437 15.0162C72.8995 15.275 73.4786 15.1068 73.7374 14.6475C73.9929 14.1851 73.8279 13.6061 73.3686 13.3474C72.7572 13.0078 72.0164 12.8396 71.1042 12.8396C65.6115 12.8396 58.5273 19.0298 58.5273 25.6049C58.5273 28.5189 60.6914 30.799 63.4539 30.799C66.3944 30.799 69.0922 29.0687 71.7059 25.5079C73.8312 22.6133 76.0017 18.3798 78.5346 12.1928C79.7832 9.13976 81.2291 5.3946 81.7726 3.9845Z" fill="#DCD7CF"/>
<path d="M111.761 8.3006C111.907 8.37824 112.062 8.41706 112.218 8.41706C112.557 8.41706 112.884 8.23591 113.059 7.9189C113.667 6.80613 113.835 5.99743 113.644 5.12403C113.531 4.6097 113.02 4.28298 112.505 4.3962C111.991 4.50942 111.664 5.02052 111.778 5.53485C111.836 5.7904 111.855 6.13652 111.383 7.00345C111.127 7.46926 111.296 8.04829 111.761 8.3006Z" fill="#DCD7CF"/>
<path d="M77.2969 28.4226V28.4096C77.2969 27.1869 78.2188 26.1841 79.5386 26.1841C80.3505 26.1841 80.8357 26.4558 81.2336 26.8472L80.632 27.5427C80.2988 27.2419 79.9623 27.0575 79.5321 27.0575C78.8075 27.0575 78.2835 27.6591 78.2835 28.3967V28.4096C78.2835 29.1472 78.7946 29.7618 79.5321 29.7618C80.0238 29.7618 80.3246 29.5644 80.6643 29.2571L81.266 29.8653C80.8228 30.3376 80.3311 30.6319 79.503 30.6319C78.2382 30.6352 77.2969 29.6583 77.2969 28.4226Z" fill="#DCD7CF"/>
<path d="M82.7266 28.4226V28.4096C82.7266 27.1869 83.6905 26.1841 85.02 26.1841C86.3495 26.1841 87.3006 27.1739 87.3006 28.3967V28.4096C87.3006 29.6324 86.3366 30.6352 85.0071 30.6352C83.6808 30.6352 82.7266 29.6453 82.7266 28.4226ZM86.3107 28.4226V28.4096C86.3107 27.6721 85.7705 27.0575 85.0071 27.0575C84.2437 27.0575 83.7164 27.6591 83.7164 28.3967V28.4096C83.7164 29.1472 84.2566 29.7618 85.02 29.7618C85.7802 29.7618 86.3107 29.1601 86.3107 28.4226Z" fill="#DCD7CF"/>
<path d="M89.1641 26.2522H92.4409V27.1127H90.1119V28.0281H92.166V28.8886H90.1119V30.5545H89.1641V26.2522Z" fill="#DCD7CF"/>
<path d="M94.2012 26.2522H97.478V27.1127H95.149V28.0281H97.2031V28.8886H95.149V30.5545H94.2012V26.2522Z" fill="#DCD7CF"/>
<path d="M99.25 26.2522H102.495V27.0932H100.191V27.9666H102.22V28.8077H100.191V29.7102H102.527V30.5512H99.25V26.2522Z" fill="#DCD7CF"/>
<path d="M104.377 26.2522H107.621V27.0932H105.318V27.9666H107.347V28.8077H105.318V29.7102H107.654V30.5512H104.377V26.2522Z" fill="#DCD7CF"/>
<path d="M109.219 29.9311L109.778 29.2615C110.167 29.5817 110.571 29.7823 111.063 29.7823C111.451 29.7823 111.684 29.627 111.684 29.3779V29.365C111.684 29.1256 111.535 29.0027 110.817 28.8183C109.95 28.5983 109.39 28.359 109.39 27.5017V27.4888C109.39 26.7092 110.018 26.1917 110.894 26.1917C111.522 26.1917 112.056 26.389 112.492 26.7383L112.001 27.45C111.619 27.1847 111.244 27.0262 110.881 27.0262C110.519 27.0262 110.328 27.1912 110.328 27.4015V27.4144C110.328 27.6958 110.513 27.7896 111.257 27.9805C112.13 28.2069 112.622 28.5207 112.622 29.2712V29.2841C112.622 30.1381 111.972 30.6169 111.043 30.6169C110.39 30.6169 109.733 30.3904 109.219 29.9311Z" fill="#DCD7CF"/>
<path d="M132.819 24.6023C131.098 24.5958 128.558 24.1236 126.233 21.9018C122.306 18.1501 122.234 11.9632 122.234 11.7012C122.234 11.6786 122.238 11.6559 122.241 11.6365L122.244 11.6139C122.244 10.6792 122.849 9.3532 125.731 8.34414C127.394 7.76199 129.474 7.39977 131.764 7.29951C131.589 7.16367 131.408 7.03431 131.227 6.90817C129.616 5.79886 128.937 4.72511 128.96 3.31825C128.976 2.18953 129.613 1.25162 130.803 0.604788C131.599 0.17141 132.398 0.0194053 132.43 0.012937C132.482 0.00323446 132.534 0 132.586 0C132.99 0 133.339 0.287841 133.414 0.688877C133.498 1.14489 133.197 1.58474 132.741 1.66883C132.722 1.67206 130.661 2.08927 130.645 3.34089C130.635 4.0233 130.891 4.62485 132.185 5.52072C134.294 6.97286 135.306 8.38942 135.193 9.7316C135.102 10.7956 134.333 11.6721 132.906 12.3383C132.793 12.3901 132.673 12.416 132.55 12.416C132.223 12.416 131.926 12.2251 131.787 11.9308C131.693 11.7271 131.683 11.4975 131.758 11.2872C131.835 11.077 131.991 10.9088 132.194 10.8118C132.773 10.5434 133.472 10.11 133.517 9.5893C133.534 9.40818 133.475 9.19473 133.346 8.9554H133.343C133.252 8.9554 133.162 8.95217 133.068 8.95217C127.067 8.95217 123.929 10.6857 123.929 11.6139C123.929 12.5421 127.067 14.2756 133.068 14.2756C139.049 14.2756 142.005 12.5712 142.196 11.7012V11.6786V11.5977C142.196 11.5848 142.2 11.5718 142.2 11.5589L142.203 11.5427C142.093 10.8442 140.404 9.66368 136.484 9.18503C136.26 9.15915 136.06 9.04596 135.924 8.86808C135.785 8.6902 135.723 8.47028 135.753 8.24712C135.804 7.82668 136.163 7.50649 136.587 7.50649C136.62 7.50649 136.655 7.50973 136.691 7.51296C142.649 8.24065 143.581 10.2749 143.804 11.0123C144.092 10.8894 144.603 10.718 145.221 10.718C146.004 10.718 146.706 11.0026 147.252 11.5395C148.488 12.7523 147.932 14.6475 147.411 15.579C145.687 19.2983 141.621 19.5764 141.449 19.5861C141.43 19.5861 141.417 19.5893 141.407 19.5893H141.368C141.249 19.5893 140.676 19.5829 139.851 19.5829C138.858 19.5829 137.36 19.5893 135.869 19.6281C135.694 19.6314 135.513 19.6346 135.329 19.6378C134.501 19.654 132.815 19.6864 132.333 19.9289C132.333 19.9322 132.333 19.9354 132.333 19.9386C132.375 19.9774 132.621 20.1585 133.711 20.3623C135.694 20.7342 137.813 21.3099 137.904 21.3325C138.205 21.4134 138.434 21.6527 138.502 21.9567C138.573 22.2608 138.47 22.5745 138.237 22.7782C136.93 23.9199 134.921 24.5991 132.861 24.5991L132.819 24.6023ZM124.214 14.2174C124.593 16.1708 125.453 18.8261 127.397 20.6857C129.335 22.5357 131.444 22.927 132.87 22.927C133.776 22.927 134.672 22.7685 135.478 22.4645C134.714 22.2834 134.012 22.1346 133.394 22.0182C131.932 21.7433 130.519 21.3358 130.651 19.667C130.781 18.0434 133.071 17.9981 135.284 17.9561C135.465 17.9528 135.646 17.9496 135.817 17.9431C137.321 17.9043 138.842 17.8979 139.848 17.8979C140.281 17.8979 140.647 17.8979 140.915 17.9011C141.527 16.9729 141.844 15.3882 142.005 14.1689C141.549 14.4276 141.012 14.6702 140.401 14.8836C138.428 15.5757 135.824 15.9574 133.064 15.9574C130.305 15.9574 127.701 15.5757 125.728 14.8836C125.159 14.6799 124.651 14.4567 124.214 14.2174ZM143.82 12.9561C143.73 14.2336 143.506 16.035 142.963 17.5162C143.94 17.1411 145.192 16.3746 145.894 14.8383C145.903 14.8157 145.916 14.7931 145.929 14.7704C145.936 14.7575 146.693 13.3474 146.068 12.7361C145.835 12.5065 145.544 12.3901 145.205 12.3901C144.752 12.3901 144.364 12.5971 144.322 12.6197C144.305 12.6294 144.286 12.6391 144.267 12.6488C144.056 12.7523 143.911 12.8687 143.82 12.9561Z" fill="#F57F29"/>
<path d="M133.995 28.1891C129.631 28.1891 125.536 26.4168 122.466 23.1956C122.146 22.8592 122.159 22.3256 122.495 22.0054C122.654 21.8566 122.858 21.7725 123.074 21.7725C123.307 21.7725 123.524 21.8663 123.683 22.0345C126.432 24.9194 130.094 26.5073 133.992 26.5073C138.061 26.5073 141.975 24.7092 144.725 21.572C144.883 21.3909 145.116 21.2842 145.359 21.2842C145.563 21.2842 145.76 21.3586 145.912 21.4944C146.261 21.8016 146.297 22.332 145.99 22.6813C142.926 26.1807 138.55 28.1891 133.995 28.1891Z" fill="#F57F29"/>
</svg>
